<svg width="160" height="142" viewBox="0 0 160 142" fill="none" xmlns="http://www.w3.org/2000/svg">
<path fill-rule="evenodd" clip-rule="evenodd" d="M41.4399 0.00394156C42.036 -0.00282077 42.6322 -0.000594174 43.2282 0.0084197L44.2229 0.00426884C45.1346 0.00208183 46.0458 0.00710102 46.9574 0.0151352C47.8344 0.0213058 48.7113 0.0201118 49.5882 0.0189177L49.9058 0.0184982C51.6088 0.0176571 53.3116 0.022692 55.0145 0.0317048C57.4767 0.0447273 59.9388 0.0489084 62.4009 0.0509235C66.3955 0.0544333 70.39 0.065105 74.3845 0.0802656C78.265 0.0949784 82.1456 0.106328 86.0262 0.113143L86.7509 0.114419L90.3501 0.12053C100.305 0.137153 110.26 0.165393 120.215 0.201207L121.887 3.15919L122.363 4.00079C123.292 5.64291 124.216 7.28716 125.133 8.9355C126.49 11.373 127.87 13.7944 129.283 16.1994C130.801 18.7848 132.267 21.3965 133.718 24.0205C135.105 26.5287 136.52 29.0198 137.948 31.505C138.796 32.982 139.642 34.46 140.488 35.9384L140.762 36.418C142.211 38.9499 143.641 41.4916 145.063 44.0382C146.559 46.7151 148.081 49.3767 149.606 52.0368C150.308 53.2612 151.009 54.4858 151.71 55.7107L151.984 56.1886C153.451 58.7523 154.898 61.3265 156.331 63.9091C157 65.1088 157.675 66.2998 158.398 67.4673L158.749 68.0326C158.958 68.3663 159.17 68.6981 159.386 69.0274C159.811 69.7028 159.962 69.9413 159.993 70.1946C160.011 70.3328 159.992 70.4755 159.964 70.696C159.707 71.4222 159.364 72.0587 158.988 72.7318L158.501 73.6075L157.973 74.5479L157.426 75.5259C156.119 77.8606 154.776 80.1736 153.42 82.48C152.251 84.4729 151.123 86.4861 150.007 88.5088C148.597 91.064 147.15 93.5929 145.67 96.1082C144.502 98.1007 143.374 100.113 142.258 102.136C140.848 104.691 139.401 107.22 137.922 109.735C136.753 111.728 135.625 113.74 134.51 115.763C133.1 118.318 131.653 120.847 130.173 123.362C129.005 125.354 127.877 127.367 126.761 129.389C125.434 131.793 124.086 134.182 122.703 136.554L122.236 137.355C121.686 138.295 121.507 138.6 121.325 138.903C121.237 139.049 121.148 139.194 121.016 139.409L120.654 140.238C119.851 141.118 119.704 141.136 118.572 141.222C117.979 141.235 117.386 141.239 116.794 141.236L115.805 141.25C114.898 141.261 113.992 141.264 113.086 141.265C112.231 141.267 111.376 141.276 110.521 141.285L110.515 141.285L110.154 141.289C108.016 141.31 105.879 141.318 103.741 141.325C102.406 141.328 101.071 141.335 99.7357 141.341C96.0386 141.36 92.3414 141.375 88.6442 141.379L87.9272 141.38L86.488 141.382L85.7664 141.383L85.044 141.384C81.1822 141.389 77.3209 141.415 73.4594 141.45C69.4937 141.485 65.5283 141.504 61.5625 141.505C59.3362 141.506 57.1104 141.515 54.8842 141.542C52.988 141.565 51.0925 141.572 49.1962 141.559C48.2289 141.553 47.263 141.554 46.2958 141.575C42.1435 141.661 41.0462 141.684 40.1878 141.242C39.8795 141.083 39.602 140.865 39.2248 140.568C38.3142 139.503 37.7798 138.337 37.3213 137.023C37.0273 136.226 36.6047 135.518 36.1697 134.791C35.8841 134.276 35.5988 133.762 35.3139 133.247C34.06 130.993 32.7805 128.757 31.473 126.534C30.1393 124.264 28.8557 121.973 27.6042 119.657C26.4496 117.524 25.2499 115.418 24.0416 113.315C23.1886 111.83 22.3451 110.34 21.5033 108.849L21.0643 108.072C20.4851 107.046 19.9061 106.02 19.3274 104.994C17.5226 101.794 15.7079 98.6004 13.8821 95.4128C12.6069 93.1858 11.3465 90.951 10.0975 88.7092C8.72673 86.2489 7.31769 83.8138 5.89013 81.3861C4.67622 79.313 3.5147 77.2145 2.38054 75.0967L2.0138 74.4143L1.66507 73.7651C1.2171 72.9752 0.715201 72.2279 0.192564 71.4856C0.0830975 71.2423 0.0293466 71.1228 0.0094386 70.998C-0.00976759 70.8775 0.00252485 70.752 0.0266764 70.5055C0.304951 69.7822 0.655991 69.1301 1.03479 68.4536L1.52997 67.5655L2.06494 66.6156L2.6161 65.6308C4.07015 63.0347 5.54287 60.4494 7.02512 57.8694C7.7334 56.6352 8.43906 55.3995 9.14472 54.1638L9.14501 54.1633L9.14559 54.1622L9.52967 53.4897L10.6256 51.5713L10.9026 51.0865C11.4525 50.1241 12.0031 49.162 12.5542 48.2003C13.0046 47.4141 13.4549 46.6277 13.905 45.8413L14.1739 45.3714C15.4336 43.1696 16.678 40.9597 17.9129 38.7439C19.2679 36.3126 20.6591 33.9051 22.0691 31.5054C23.4175 29.2021 24.7113 26.8705 26.0007 24.5337C27.2442 22.2861 28.5287 20.0655 29.8312 17.8517C30.9994 15.8591 32.1273 13.8464 33.2431 11.8241C34.5701 9.42077 35.9183 7.03176 37.3011 4.66001L37.7677 3.85842C38.5829 2.46681 38.5829 2.46681 38.9878 1.80437L39.349 0.973827C40.1564 0.0921608 40.3027 0.0789326 41.4399 0.00394156ZM53.418 29.0586C55.2894 30.0794 57.1121 31.1013 58.9121 32.2315C59.403 32.5374 59.8939 32.8432 60.3848 33.149L61.1628 33.6342C62.575 34.5129 63.9916 35.3845 65.4083 36.2561L66.2947 36.8017C68.2169 37.9837 70.1429 39.1592 72.0714 40.3308C74.2221 41.6374 76.3657 42.9547 78.5041 44.2812C81.0402 45.8543 83.5824 47.4175 86.1246 48.9806L86.7254 49.3501C87.6135 49.8964 88.5013 50.4433 89.3889 50.9904C92.1623 52.6992 94.938 54.404 97.7221 56.0953C99.8727 57.4019 102.016 58.7191 104.155 60.0457C106.005 61.1932 107.858 62.3359 109.712 63.4765L110.596 64.0202L112.38 65.1169C113.257 65.6565 114.134 66.1962 115.011 66.7361L115.879 67.2699L116.638 67.737L117.599 68.3289C118.952 69.1624 120.306 69.9948 121.663 70.823C122.302 71.2133 122.941 71.6042 123.579 71.9951C124.029 72.27 124.479 72.544 124.929 72.8179L125.758 73.3251L126.484 73.7684C127.193 74.2341 127.846 74.7434 128.499 75.2831C125.014 77.334 121.516 79.3554 117.983 81.3233C115.87 82.5021 113.766 83.6984 111.666 84.9021C109.292 86.2635 106.91 87.6113 104.519 88.9434C102.355 90.1492 100.208 91.3793 98.0728 92.634C95.5071 94.1416 92.914 95.5936 90.3086 97.0312C88.3271 98.1275 86.3643 99.2511 84.4125 100.399C81.8582 101.902 79.2762 103.348 76.6816 104.78C74.7001 105.876 72.7374 107 70.7856 108.148C68.2162 109.659 65.6208 111.118 63.0112 112.558C60.8268 113.765 58.6565 114.995 56.4994 116.25L55.8582 116.62L55.3062 116.941C54.7454 117.237 54.1546 117.473 53.5654 117.708L53.418 117.767V29.0586ZM118.156 6.52009L118.079 6.08008C117.845 6.08008 117.713 6.08008 117.584 6.09657C117.418 6.11769 117.255 6.16586 116.885 6.27576L116.043 6.55367C115.554 6.71442 115.064 6.87522 114.576 7.03708C114.223 7.15371 113.871 7.27005 113.519 7.38609C112.589 7.69166 111.66 7.99771 110.731 8.30452C109.224 8.8024 107.717 9.29942 106.209 9.79576C105.678 9.97067 105.146 10.1457 104.615 10.3213C102.878 10.8957 101.139 11.4611 99.3892 11.9972C98.4893 12.2719 97.5904 12.5472 96.6971 12.8424L95.8015 13.144C95.1223 13.3718 94.4431 13.6 93.7642 13.8287C91.8631 14.4692 89.9623 15.1077 88.0435 15.6938C86.1953 16.2569 84.3573 16.8498 82.5202 17.4478L81.8908 17.6529C80.4171 18.1328 78.9436 18.6133 77.4703 19.0946C76.4731 19.4203 75.4758 19.7459 74.4784 20.0711C72.3855 20.7534 70.2928 21.4363 68.2007 22.1208L67.8494 22.2357C66.8929 22.5488 65.9364 22.8619 64.9796 23.174C63.9373 23.5136 62.8951 23.8536 61.8535 24.1951C61.4641 24.3228 61.0748 24.4505 60.6854 24.578C60.1339 24.7573 59.5824 24.9366 59.0315 25.1176L58.5298 25.2827C57.5946 25.5885 56.9109 25.8394 56.0898 26.3868C58.2694 27.8147 60.4753 29.1935 62.7029 30.545C66.8327 33.0498 70.9457 35.5817 75.052 38.125C79.5432 40.9075 84.0389 43.6827 88.5539 46.4264C92.6293 48.9029 96.6904 51.403 100.743 53.9164C102.881 55.2423 105.024 56.5594 107.174 57.8656C111.053 60.222 114.92 62.5968 118.776 64.9911C120.883 66.2998 122.992 67.6051 125.114 68.8902L125.827 69.3215C125.928 69.3826 126.028 69.4437 126.128 69.5046C127.238 70.1828 128.326 70.8473 129.568 71.2754C129.621 70.229 129.473 69.2722 129.283 68.2488C129.191 67.7637 129.1 67.2784 129.01 66.7929L128.855 65.9628C128.629 64.7548 128.404 63.5466 128.181 62.3379L128.068 61.7253L127.837 60.4679L127.352 57.8324L126.982 55.8246C126.83 54.9981 126.678 54.1716 126.525 53.3452C125.601 48.3394 124.719 43.3273 123.857 38.3103C123.118 34.0128 122.359 29.7203 121.552 25.4349C120.366 19.1395 119.259 12.8304 118.156 6.52009ZM49.6784 30.127V116.163C48.0283 114.749 46.5073 113.369 45.1027 111.719C43.9727 110.422 42.7548 109.22 41.529 108.014C40.169 106.676 38.849 105.331 37.6061 103.883C36.7799 102.956 35.8934 102.087 35.0069 101.217L34.8571 101.07C34.7653 100.98 34.6736 100.89 34.5819 100.8C33.222 99.4613 31.902 98.1171 30.6591 96.6692C29.8328 95.7418 28.9464 94.8723 28.0599 94.0029C27.9182 93.8638 27.7764 93.7248 27.6349 93.5855C25.9774 91.9542 25.4501 91.4353 24.9544 90.8877C24.7232 90.6322 24.4988 90.3705 24.1697 89.9867C23.1143 88.7572 21.9646 87.6258 20.811 86.4904L20.5542 86.2377C19.1487 84.8531 17.7774 83.4667 16.4931 81.9688C15.6715 81.0457 14.7894 80.1806 13.9073 79.3156L13.9025 79.311L13.9001 79.3086L13.8992 79.3077C13.7573 79.1685 13.6153 79.0293 13.4736 78.8898C12.0893 77.5275 10.7408 76.1593 9.47548 74.6852C8.92597 74.0545 8.34154 73.4647 7.74563 72.878L7.12044 72.2601L6.66016 71.8092C7.01707 71.0139 7.40625 70.4627 8.02952 69.8553L8.4658 69.4243C8.98146 68.9473 9.507 68.4896 10.0397 68.032C11.3358 66.9029 12.5356 65.6859 13.7408 64.4614C15.0819 63.0987 16.4289 61.7756 17.8797 60.5302C18.7794 59.7301 19.6217 58.8711 20.4643 58.0118L20.4643 58.0118L20.4644 58.0117L20.6423 57.8303L20.8214 57.6479C22.1164 56.3309 23.4212 55.0589 24.822 53.855C25.7264 53.05 26.5734 52.1864 27.4207 51.3224L27.4227 51.3203C27.5379 51.2029 27.6531 51.0854 27.7685 50.9681C29.0634 49.6511 30.3683 48.379 31.7691 47.1752C32.6734 46.3702 33.5204 45.5065 34.3677 44.6425L34.372 44.6382C34.4865 44.5215 34.6009 44.4048 34.7155 44.2882C36.0104 42.9712 37.3153 41.6992 38.7161 40.4953C39.6204 39.6903 40.4674 38.8267 41.3147 37.9628C41.4306 37.8446 41.5465 37.7264 41.6626 37.6084C42.971 36.2777 44.2893 34.9899 45.705 33.7736C46.4817 33.0894 47.2027 32.354 47.9249 31.6132C49.1521 30.3561 49.3413 30.1623 49.5535 30.1324C49.5922 30.127 49.6317 30.127 49.6784 30.127ZM128.317 84.3506C128.785 82.5688 129.143 80.861 129.303 79.0234L129.264 79.0235C129.233 79.0236 129.204 79.0241 129.175 79.0256C128.762 79.0469 128.359 79.2836 123.898 81.9072C121.67 83.2201 119.434 84.5151 117.176 85.7748C114.971 87.0016 112.771 88.2354 110.594 89.5107C108.182 90.9269 105.761 92.3238 103.318 93.6857C101.102 94.9205 98.8926 96.1648 96.691 97.4243L96.2206 97.6936C95.4313 98.1453 94.6421 98.5972 93.8531 99.0493C92.4435 99.8569 91.0331 100.663 89.6225 101.469L87.2864 102.804L86.3511 103.338L80.7419 106.543L80.2765 106.809L76.9859 108.69L76.5016 108.966L75.5308 109.521C74.7315 109.978 73.9322 110.435 73.1328 110.891L72.728 111.122L72.7197 111.127C71.5559 111.792 70.392 112.457 69.2295 113.124C65.4171 115.314 61.5803 117.458 57.7334 119.587L57.1602 119.904V120.706C57.8821 120.878 58.604 121.051 59.3259 121.223L60.2329 121.44C64.0567 122.353 67.868 123.313 71.6765 124.287C83.1011 127.211 94.5354 130.1 105.999 132.869L106.942 133.097C107.832 133.312 108.722 133.528 109.613 133.742L110.429 133.938C112.346 134.403 114.265 134.799 116.21 135.134C116.642 134.32 116.872 133.576 117.049 132.669C117.552 130.033 118.182 127.431 118.823 124.826C119.522 121.984 120.221 119.144 120.849 116.286C121.445 113.552 122.07 110.827 122.735 108.109C123.451 105.189 124.152 102.267 124.811 99.3332L124.927 98.8125L125.387 96.7584C125.738 95.1931 126.091 93.6283 126.448 92.0647L126.647 91.1975C127.173 88.9069 127.734 86.6273 128.317 84.3506ZM43.5312 3.67383H113.002C112.387 4.28808 111.848 4.46339 111.076 4.71449L111.076 4.71469C110.994 4.74137 110.909 4.76891 110.821 4.79792L110.317 4.96574C109.962 5.0835 109.607 5.20046 109.252 5.31672C108.725 5.48906 108.2 5.6638 107.674 5.83904C105.936 6.41495 104.194 6.95983 102.434 7.46464C99.5639 8.29311 96.7278 9.23496 93.8927 10.1765L93.8897 10.1775C93.3108 10.3697 92.732 10.562 92.153 10.7532C90.5438 11.2845 88.9342 11.8144 87.3247 12.3443L87.1987 12.3858L86.6477 12.5673C83.6086 13.5681 80.5649 14.5542 77.5191 15.5343C74.4723 16.5149 71.4299 17.5084 68.3885 18.5053C66.4279 19.1476 64.4669 19.7883 62.5058 20.429L62.5017 20.4304L61.3989 20.7907C60.6954 21.0206 59.992 21.2507 59.2886 21.4808C58.2171 21.8313 57.145 22.1797 56.0727 22.5277L55.1743 22.8221L54.3766 23.0798L53.7075 23.2975C53.4736 23.3599 53.3378 23.3961 53.1998 23.4171C53.009 23.4462 52.8137 23.4462 52.3486 23.4462L51.942 22.5678C51.4254 21.4521 50.9087 20.3365 50.392 19.2209C50.0447 18.4711 49.6977 17.7212 49.3507 16.9713C48.2746 14.6467 47.1958 12.3235 46.1019 10.0072L45.5771 8.89311C45.2544 8.20824 44.9297 7.52434 44.6041 6.84088L44.1711 5.92201L43.7941 5.12839C43.6709 4.82235 43.6054 4.65975 43.5707 4.49083C43.5312 4.29933 43.5312 4.09972 43.5312 3.67383ZM124.404 15.0612C123.947 14.2456 123.461 13.4978 122.887 12.7598C123.074 14.1391 123.296 15.511 123.53 16.8833L123.688 17.8031C124.315 21.4491 124.986 25.0868 125.659 28.7246C126.371 32.5751 127.069 36.4269 127.719 40.2885C128.422 44.4677 129.162 48.6383 129.934 52.8055C131.124 59.2313 132.264 65.6654 133.392 72.1024L133.574 73.1456C135.507 72.8724 137.41 72.5549 139.309 72.1027C141.529 71.5641 143.752 71.0514 145.992 70.5976L146.694 70.4559L146.996 70.3946C147.827 70.2255 148.658 70.0564 149.489 69.8892L149.529 69.8814L149.532 69.8807L149.532 69.8807L149.533 69.8807C150.196 69.7511 150.858 69.6215 151.52 69.4873L152.145 69.36C152.838 69.2293 153.472 69.0782 154.148 68.8705C154.3 68.4157 154.366 68.2189 154.346 68.0309C154.332 67.8875 154.268 67.7491 154.155 67.5053L153.714 66.7997L153.188 65.9324C152.553 64.8848 151.949 63.8203 151.347 62.7531C151.05 62.2256 150.753 61.6982 150.456 61.1711L149.995 60.3547C149.542 59.5511 149.089 58.7476 148.635 57.9446L148.414 57.5554L148.413 57.5528C147.171 55.3586 145.928 53.1644 144.699 50.9633C142.958 47.8469 141.204 44.7387 139.43 41.641C137.928 39.017 136.435 36.3877 134.949 33.7543C134.236 32.4902 133.522 31.2267 132.808 29.9633L131.938 28.4237L130.201 25.3513L129.767 24.5831L128.899 23.0467L128.813 22.8948C128.102 21.6386 127.391 20.3825 126.685 19.124L126.2 18.2592L125.258 16.584L124.817 15.7949L124.404 15.0612ZM40.325 6.61328H40.8594C42.1676 9.36413 43.4689 12.1182 44.7637 14.8753C45.1806 15.7629 45.599 16.6498 46.0188 17.536C46.501 18.5548 46.9789 19.5755 47.4535 20.5978C47.6329 20.9822 47.8137 21.3659 47.996 21.7489C48.2495 22.2824 48.4978 22.8181 48.7448 23.3547L49.1744 24.2716C49.3062 24.7076 49.3642 24.8993 49.3575 25.0887C49.3523 25.2373 49.3073 25.3845 49.2271 25.6473C48.6965 26.3578 48.0485 26.93 47.3877 27.5134L47.3877 27.5135L47.3876 27.5135L47.3222 27.5713C45.8936 28.8587 44.5182 30.1851 43.1751 31.5614C42.4391 32.3097 41.6851 33.018 40.8897 33.7032C39.7547 34.6846 38.7033 35.7355 37.6531 36.8062C36.4427 38.0402 35.2137 39.2195 33.904 40.3476C33.0597 41.0964 32.2726 41.9003 31.4836 42.7062L31.374 42.8181C30.3812 43.8318 29.3853 44.8224 28.3096 45.7488C27.1811 46.7219 26.1379 47.7666 25.095 48.8299C23.8846 50.0639 22.6556 51.2432 21.3459 52.3713C20.5141 53.109 19.7384 53.9006 18.9607 54.694L18.9606 54.6941L18.8159 54.8418C17.6671 56.003 16.5172 57.1291 15.2672 58.1817C14.4678 58.9024 13.7125 59.6662 12.9562 60.4312L12.9562 60.4312L12.9561 60.4313L12.6705 60.72C11.3341 62.0681 9.99443 63.3853 8.52894 64.5944L8.0457 65.0004C7.67385 65.3121 7.30008 65.6215 6.92578 65.9303C7.30251 64.9309 7.75641 64.0156 8.27636 63.083L8.76894 62.1975L9.29713 61.2544L9.84463 60.2733C11.2921 57.6819 12.7597 55.1023 14.2383 52.5285C15.0865 51.0515 15.9329 49.5735 16.7786 48.0951L17.0529 47.6155C18.5004 45.0846 19.9301 42.5441 21.3514 39.9983C22.4576 38.0186 23.5774 36.0471 24.7051 34.0796C25.6654 32.4036 26.6176 30.7233 27.5665 29.0409C28.9559 26.5778 30.358 24.1221 31.7634 21.6682C33.0548 19.4125 34.3323 17.1493 35.599 14.8796C36.1939 13.816 36.7896 12.7528 37.3859 11.69L37.8241 10.9082C38.2324 10.1822 38.6436 9.45791 39.0559 8.73413L39.4236 8.07809C39.7088 7.58074 40.0147 7.09538 40.325 6.61328ZM149.806 81.4235C151.533 78.4412 153.19 75.4506 154.684 72.3441C154.03 72.3255 153.423 72.3305 152.778 72.4478L152.012 72.6113C151.452 72.7295 150.893 72.848 150.334 72.9673L149.68 73.1071C148.962 73.2606 148.244 73.4142 147.525 73.568L146.768 73.7302C142.366 74.6728 137.967 75.6304 133.575 76.6192C133.303 77.8748 133.02 79.1252 132.704 80.3704C131.97 83.2442 131.271 86.1231 130.621 89.0172L130.503 89.5447C130.344 90.2513 130.186 90.9579 130.028 91.6646C129.18 95.4547 128.33 99.2444 127.377 103.01C126.732 105.551 126.12 108.097 125.545 110.655L125.426 111.187L125.223 112.093L124.95 113.311C124.598 114.887 124.243 116.462 123.884 118.037L123.689 118.886C123.351 120.359 123.007 121.831 122.641 123.298L122.381 124.32C122.211 124.991 122.04 125.663 121.869 126.334C121.358 128.292 120.915 130.176 120.75 132.196H121.017C123.258 128.285 125.482 124.365 127.697 120.439C128.136 119.661 128.575 118.884 129.014 118.106L129.451 117.333C130.292 115.842 131.136 114.352 131.989 112.867C133.197 110.764 134.397 108.658 135.551 106.525C136.803 104.209 138.087 101.918 139.42 99.648C140.532 97.7566 141.63 95.8594 142.701 93.9441C144.109 91.417 145.525 88.8949 146.961 86.3838L147.509 85.4267C148.272 84.091 149.036 82.7556 149.806 81.4235ZM52.3471 123.109C54.1503 123.29 55.8647 123.679 57.6221 124.116L58.5308 124.338C59.1647 124.494 59.7985 124.65 60.432 124.807C61.3856 125.043 62.3396 125.277 63.2937 125.511C65.863 126.143 68.43 126.774 70.9745 127.5C73.7047 128.277 76.4635 128.947 79.2219 129.616C79.7274 129.738 80.2329 129.861 80.7383 129.984C82.7732 130.481 84.8072 130.982 86.8412 131.482L87.4705 131.637C91.7482 132.69 96.0229 133.755 100.294 134.835C101.037 135.022 101.78 135.209 102.523 135.395C103.553 135.654 104.583 135.915 105.613 136.176L106.539 136.407L107.381 136.622L108.114 136.807C108.359 136.886 108.506 136.933 108.646 136.996C108.854 137.09 109.047 137.218 109.527 137.538H43.7969C44.1809 136.578 44.5219 135.833 45.0514 134.971L45.4918 134.251L45.9678 133.48L46.4596 132.678C46.9015 131.957 47.3445 131.237 47.7879 130.518C48.1818 129.878 48.5751 129.238 48.9684 128.598C50.0931 126.767 51.2195 124.938 52.3471 123.109ZM10.1776 80.6723L9.59766 80.0918C9.59766 80.3236 9.59766 80.4549 9.62664 80.5794C9.66445 80.7419 9.75162 80.8929 9.95252 81.2409C11.7243 84.1593 12.6102 85.6187 13.4676 87.0947C14.3251 88.5711 15.154 90.0642 16.8119 93.0507C17.8396 94.8912 18.8722 96.7283 19.9221 98.5562C20.9895 100.413 22.0431 102.275 23.0625 104.158C24.3141 106.475 25.598 108.766 26.9319 111.036C28.2035 113.199 29.4513 115.374 30.6726 117.566C31.9162 119.798 33.1722 122.023 34.4429 124.241C36.423 127.695 38.3775 131.162 40.3166 134.639L40.5922 135.134C40.8385 135.011 40.9713 134.944 41.0823 134.852C41.212 134.743 41.312 134.6 41.5288 134.288L42.0012 133.518C42.272 133.078 42.5427 132.638 42.8112 132.197C43.002 131.884 43.1931 131.57 43.3847 131.257C44.5522 129.347 45.7018 127.428 46.8218 125.49L47.2386 124.763C47.2884 124.677 47.3381 124.59 47.3879 124.504C48.0485 123.357 48.6992 122.228 49.1424 120.972C48.6379 120.488 48.1518 119.994 47.6948 119.465C46.3844 117.927 44.9698 116.511 43.5313 115.094C43.3678 114.933 43.2039 114.772 43.0401 114.612C42.1296 113.719 41.2187 112.825 40.3698 111.873C39.088 110.378 37.7198 108.995 36.317 107.613C36.1535 107.452 35.9897 107.291 35.8258 107.13C34.9153 106.237 34.0045 105.344 33.1556 104.392C31.8738 102.897 30.5056 101.513 29.1028 100.131C28.9367 99.9677 28.7702 99.8044 28.6037 99.6411C27.6973 98.7523 26.7905 97.8632 25.9461 96.9151C24.6229 95.3701 23.2034 93.9442 21.755 92.5163C21.5663 92.3303 21.377 92.1447 21.1876 91.9591C20.2598 91.0495 19.3313 90.1392 18.4669 89.1693C17.1764 87.6598 15.7948 86.2573 14.3858 84.8597C14.1094 84.5857 13.8332 84.3113 13.5573 84.0368C13.1525 83.6336 12.7476 83.2304 12.3427 82.8274C11.62 82.1099 10.8976 81.3923 10.1776 80.6723Z" fill="#00B8D9"/>
<path fill-rule="evenodd" clip-rule="evenodd" d="M41.4399 0.00394156C42.036 -0.00282077 42.6322 -0.000594174 43.2282 0.0084197L44.2229 0.00426884C45.1346 0.00208183 46.0458 0.00710102 46.9574 0.0151352C47.8344 0.0213058 48.7113 0.0201118 49.5882 0.0189177L49.9058 0.0184982C51.6088 0.0176571 53.3116 0.022692 55.0145 0.0317048C57.4767 0.0447273 59.9388 0.0489084 62.4009 0.0509235C66.3955 0.0544333 70.39 0.065105 74.3845 0.0802656C78.265 0.0949784 82.1456 0.106328 86.0262 0.113143L86.7509 0.114419L90.3501 0.12053C100.305 0.137153 110.26 0.165393 120.215 0.201207L121.887 3.15919L122.363 4.00079C123.292 5.64291 124.216 7.28716 125.133 8.9355C126.49 11.373 127.87 13.7944 129.283 16.1994C130.801 18.7848 132.267 21.3965 133.718 24.0205C135.105 26.5287 136.52 29.0198 137.948 31.505C138.796 32.982 139.642 34.46 140.488 35.9384L140.762 36.418C142.211 38.9499 143.641 41.4916 145.063 44.0382C146.559 46.7151 148.081 49.3767 149.606 52.0368C150.308 53.2612 151.009 54.4858 151.71 55.7107L151.984 56.1886C153.451 58.7523 154.898 61.3265 156.331 63.9091C157 65.1088 157.675 66.2998 158.398 67.4673L158.749 68.0326C158.958 68.3663 159.17 68.6981 159.386 69.0274C159.811 69.7028 159.962 69.9413 159.993 70.1946C160.011 70.3328 159.992 70.4755 159.964 70.696C159.707 71.4222 159.364 72.0587 158.988 72.7318L158.501 73.6075L157.973 74.5479L157.426 75.5259C156.119 77.8606 154.776 80.1736 153.42 82.48C152.251 84.4729 151.123 86.4861 150.007 88.5088C148.597 91.064 147.15 93.5929 145.67 96.1082C144.502 98.1007 143.374 100.113 142.258 102.136C140.848 104.691 139.401 107.22 137.922 109.735C136.753 111.728 135.625 113.74 134.51 115.763C133.1 118.318 131.653 120.847 130.173 123.362C129.005 125.354 127.877 127.367 126.761 129.389C125.434 131.793 124.086 134.182 122.703 136.554L122.236 137.355C121.686 138.295 121.507 138.6 121.325 138.903C121.237 139.049 121.148 139.194 121.016 139.409L120.654 140.238C119.851 141.118 119.704 141.136 118.572 141.222C117.979 141.235 117.386 141.239 116.794 141.236L115.805 141.25C114.898 141.261 113.992 141.264 113.086 141.265C112.231 141.267 111.376 141.276 110.521 141.285L110.515 141.285L110.154 141.289C108.016 141.31 105.879 141.318 103.741 141.325C102.406 141.328 101.071 141.335 99.7357 141.341C96.0386 141.36 92.3414 141.375 88.6442 141.379L87.9272 141.38L86.488 141.382L85.7664 141.383L85.044 141.384C81.1822 141.389 77.3209 141.415 73.4594 141.45C69.4937 141.485 65.5283 141.504 61.5625 141.505C59.3362 141.506 57.1104 141.515 54.8842 141.542C52.988 141.565 51.0925 141.572 49.1962 141.559C48.2289 141.553 47.263 141.554 46.2958 141.575C42.1435 141.661 41.0462 141.684 40.1878 141.242C39.8795 141.083 39.602 140.865 39.2248 140.568C38.3142 139.503 37.7798 138.337 37.3213 137.023C37.0273 136.226 36.6047 135.518 36.1697 134.791C35.8841 134.276 35.5988 133.762 35.3139 133.247C34.06 130.993 32.7805 128.757 31.473 126.534C30.1393 124.264 28.8557 121.973 27.6042 119.657C26.4496 117.524 25.2499 115.418 24.0416 113.315C23.1886 111.83 22.3451 110.34 21.5033 108.849L21.0643 108.072C20.4851 107.046 19.9061 106.02 19.3274 104.994C17.5226 101.794 15.7079 98.6004 13.8821 95.4128C12.6069 93.1858 11.3465 90.951 10.0975 88.7092C8.72673 86.2489 7.31769 83.8138 5.89013 81.3861C4.67622 79.313 3.5147 77.2145 2.38054 75.0967L2.0138 74.4143L1.66507 73.7651C1.2171 72.9752 0.715201 72.2279 0.192564 71.4856C0.0830975 71.2423 0.0293466 71.1228 0.0094386 70.998C-0.00976759 70.8775 0.00252485 70.752 0.0266764 70.5055C0.304951 69.7822 0.655991 69.1301 1.03479 68.4536L1.52997 67.5655L2.06494 66.6156L2.6161 65.6308C4.07015 63.0347 5.54287 60.4494 7.02512 57.8694C7.7334 56.6352 8.43906 55.3995 9.14472 54.1638L9.14501 54.1633L9.14559 54.1622L9.52967 53.4897L10.6256 51.5713L10.9026 51.0865C11.4525 50.1241 12.0031 49.162 12.5542 48.2003C13.0046 47.4141 13.4549 46.6277 13.905 45.8413L14.1739 45.3714C15.4336 43.1696 16.678 40.9597 17.9129 38.7439C19.2679 36.3126 20.6591 33.9051 22.0691 31.5054C23.4175 29.2021 24.7113 26.8705 26.0007 24.5337C27.2442 22.2861 28.5287 20.0655 29.8312 17.8517C30.9994 15.8591 32.1273 13.8464 33.2431 11.8241C34.5701 9.42077 35.9183 7.03176 37.3011 4.66001L37.7677 3.85842C38.5829 2.46681 38.5829 2.46681 38.9878 1.80437L39.349 0.973827C40.1564 0.0921608 40.3027 0.0789326 41.4399 0.00394156ZM53.418 29.0586C55.2894 30.0794 57.1121 31.1013 58.9121 32.2315C59.403 32.5374 59.8939 32.8432 60.3848 33.149L61.1628 33.6342C62.575 34.5129 63.9916 35.3845 65.4083 36.2561L66.2947 36.8017C68.2169 37.9837 70.1429 39.1592 72.0714 40.3308C74.2221 41.6374 76.3657 42.9547 78.5041 44.2812C81.0402 45.8543 83.5824 47.4175 86.1246 48.9806L86.7254 49.3501C87.6135 49.8964 88.5013 50.4433 89.3889 50.9904C92.1623 52.6992 94.938 54.404 97.7221 56.0953C99.8727 57.4019 102.016 58.7191 104.155 60.0457C106.005 61.1932 107.858 62.3359 109.712 63.4765L110.596 64.0202L112.38 65.1169C113.257 65.6565 114.134 66.1962 115.011 66.7361L115.879 67.2699L116.638 67.737L117.599 68.3289C118.952 69.1624 120.306 69.9948 121.663 70.823C122.302 71.2133 122.941 71.6042 123.579 71.9951C124.029 72.27 124.479 72.544 124.929 72.8179L125.758 73.3251L126.484 73.7684C127.193 74.2341 127.846 74.7434 128.499 75.2831C125.014 77.334 121.516 79.3554 117.983 81.3233C115.87 82.5021 113.766 83.6984 111.666 84.9021C109.292 86.2635 106.91 87.6113 104.519 88.9434C102.355 90.1492 100.208 91.3793 98.0728 92.634C95.5071 94.1416 92.914 95.5936 90.3086 97.0312C88.3271 98.1275 86.3643 99.2511 84.4125 100.399C81.8582 101.902 79.2762 103.348 76.6816 104.78C74.7001 105.876 72.7374 107 70.7856 108.148C68.2162 109.659 65.6208 111.118 63.0112 112.558C60.8268 113.765 58.6565 114.995 56.4994 116.25L55.8582 116.62L55.3062 116.941C54.7454 117.237 54.1546 117.473 53.5654 117.708L53.418 117.767V29.0586ZM118.156 6.52009L118.079 6.08008C117.845 6.08008 117.713 6.08008 117.584 6.09657C117.418 6.11769 117.255 6.16586 116.885 6.27576L116.043 6.55367C115.554 6.71442 115.064 6.87522 114.576 7.03708C114.223 7.15371 113.871 7.27005 113.519 7.38609C112.589 7.69166 111.66 7.99771 110.731 8.30452C109.224 8.8024 107.717 9.29942 106.209 9.79576C105.678 9.97067 105.146 10.1457 104.615 10.3213C102.878 10.8957 101.139 11.4611 99.3892 11.9972C98.4893 12.2719 97.5904 12.5472 96.6971 12.8424L95.8015 13.144C95.1223 13.3718 94.4431 13.6 93.7642 13.8287C91.8631 14.4692 89.9623 15.1077 88.0435 15.6938C86.1953 16.2569 84.3573 16.8498 82.5202 17.4478L81.8908 17.6529C80.4171 18.1328 78.9436 18.6133 77.4703 19.0946C76.4731 19.4203 75.4758 19.7459 74.4784 20.0711C72.3855 20.7534 70.2928 21.4363 68.2007 22.1208L67.8494 22.2357C66.8929 22.5488 65.9364 22.8619 64.9796 23.174C63.9373 23.5136 62.8951 23.8536 61.8535 24.1951C61.4641 24.3228 61.0748 24.4505 60.6854 24.578C60.1339 24.7573 59.5824 24.9366 59.0315 25.1176L58.5298 25.2827C57.5946 25.5885 56.9109 25.8394 56.0898 26.3868C58.2694 27.8147 60.4753 29.1935 62.7029 30.545C66.8327 33.0498 70.9457 35.5817 75.052 38.125C79.5432 40.9075 84.0389 43.6827 88.5539 46.4264C92.6293 48.9029 96.6904 51.403 100.743 53.9164C102.881 55.2423 105.024 56.5594 107.174 57.8656C111.053 60.222 114.92 62.5968 118.776 64.9911C120.883 66.2998 122.992 67.6051 125.114 68.8902L125.827 69.3215C125.928 69.3826 126.028 69.4437 126.128 69.5046C127.238 70.1828 128.326 70.8473 129.568 71.2754C129.621 70.229 129.473 69.2722 129.283 68.2488C129.191 67.7637 129.1 67.2784 129.01 66.7929L128.855 65.9628C128.629 64.7548 128.404 63.5466 128.181 62.3379L128.068 61.7253L127.837 60.4679L127.352 57.8324L126.982 55.8246C126.83 54.9981 126.678 54.1716 126.525 53.3452C125.601 48.3394 124.719 43.3273 123.857 38.3103C123.118 34.0128 122.359 29.7203 121.552 25.4349C120.366 19.1395 119.259 12.8304 118.156 6.52009ZM49.6784 30.127V116.163C48.0283 114.749 46.5073 113.369 45.1027 111.719C43.9727 110.422 42.7548 109.22 41.529 108.014C40.169 106.676 38.849 105.331 37.6061 103.883C36.7799 102.956 35.8934 102.087 35.0069 101.217L34.8571 101.07C34.7653 100.98 34.6736 100.89 34.5819 100.8C33.222 99.4613 31.902 98.1171 30.6591 96.6692C29.8328 95.7418 28.9464 94.8723 28.0599 94.0029C27.9182 93.8638 27.7764 93.7248 27.6349 93.5855C25.9774 91.9542 25.4501 91.4353 24.9544 90.8877C24.7232 90.6322 24.4988 90.3705 24.1697 89.9867C23.1143 88.7572 21.9646 87.6258 20.811 86.4904L20.5542 86.2377C19.1487 84.8531 17.7774 83.4667 16.4931 81.9688C15.6715 81.0457 14.7894 80.1806 13.9073 79.3156L13.9025 79.311L13.9001 79.3086L13.8992 79.3077C13.7573 79.1685 13.6153 79.0293 13.4736 78.8898C12.0893 77.5275 10.7408 76.1593 9.47548 74.6852C8.92597 74.0545 8.34154 73.4647 7.74563 72.878L7.12044 72.2601L6.66016 71.8092C7.01707 71.0139 7.40625 70.4627 8.02952 69.8553L8.4658 69.4243C8.98146 68.9473 9.507 68.4896 10.0397 68.032C11.3358 66.9029 12.5356 65.6859 13.7408 64.4614C15.0819 63.0987 16.4289 61.7756 17.8797 60.5302C18.7794 59.7301 19.6217 58.8711 20.4643 58.0118L20.4643 58.0118L20.4644 58.0117L20.6423 57.8303L20.8214 57.6479C22.1164 56.3309 23.4212 55.0589 24.822 53.855C25.7264 53.05 26.5734 52.1864 27.4207 51.3224L27.4227 51.3203C27.5379 51.2029 27.6531 51.0854 27.7685 50.9681C29.0634 49.6511 30.3683 48.379 31.7691 47.1752C32.6734 46.3702 33.5204 45.5065 34.3677 44.6425L34.372 44.6382C34.4865 44.5215 34.6009 44.4048 34.7155 44.2882C36.0104 42.9712 37.3153 41.6992 38.7161 40.4953C39.6204 39.6903 40.4674 38.8267 41.3147 37.9628C41.4306 37.8446 41.5465 37.7264 41.6626 37.6084C42.971 36.2777 44.2893 34.9899 45.705 33.7736C46.4817 33.0894 47.2027 32.354 47.9249 31.6132C49.1521 30.3561 49.3413 30.1623 49.5535 30.1324C49.5922 30.127 49.6317 30.127 49.6784 30.127ZM128.317 84.3506C128.785 82.5688 129.143 80.861 129.303 79.0234L129.264 79.0235C129.233 79.0236 129.204 79.0241 129.175 79.0256C128.762 79.0469 128.359 79.2836 123.898 81.9072C121.67 83.2201 119.434 84.5151 117.176 85.7748C114.971 87.0016 112.771 88.2354 110.594 89.5107C108.182 90.9269 105.761 92.3238 103.318 93.6857C101.102 94.9205 98.8926 96.1648 96.691 97.4243L96.2206 97.6936C95.4313 98.1453 94.6421 98.5972 93.8531 99.0493C92.4435 99.8569 91.0331 100.663 89.6225 101.469L87.2864 102.804L86.3511 103.338L80.7419 106.543L80.2765 106.809L76.9859 108.69L76.5016 108.966L75.5308 109.521C74.7315 109.978 73.9322 110.435 73.1328 110.891L72.728 111.122L72.7197 111.127C71.5559 111.792 70.392 112.457 69.2295 113.124C65.4171 115.314 61.5803 117.458 57.7334 119.587L57.1602 119.904V120.706C57.8821 120.878 58.604 121.051 59.3259 121.223L60.2329 121.44C64.0567 122.353 67.868 123.313 71.6765 124.287C83.1011 127.211 94.5354 130.1 105.999 132.869L106.942 133.097C107.832 133.312 108.722 133.528 109.613 133.742L110.429 133.938C112.346 134.403 114.265 134.799 116.21 135.134C116.642 134.32 116.872 133.576 117.049 132.669C117.552 130.033 118.182 127.431 118.823 124.826C119.522 121.984 120.221 119.144 120.849 116.286C121.445 113.552 122.07 110.827 122.735 108.109C123.451 105.189 124.152 102.267 124.811 99.3332L124.927 98.8125L125.387 96.7584C125.738 95.1931 126.091 93.6283 126.448 92.0647L126.647 91.1975C127.173 88.9069 127.734 86.6273 128.317 84.3506ZM43.5312 3.67383H113.002C112.387 4.28808 111.848 4.46339 111.076 4.71449L111.076 4.71469C110.994 4.74137 110.909 4.76891 110.821 4.79792L110.317 4.96574C109.962 5.0835 109.607 5.20046 109.252 5.31672C108.725 5.48906 108.2 5.6638 107.674 5.83904C105.936 6.41495 104.194 6.95983 102.434 7.46464C99.5639 8.29311 96.7278 9.23496 93.8927 10.1765L93.8897 10.1775C93.3108 10.3697 92.732 10.562 92.153 10.7532C90.5438 11.2845 88.9342 11.8144 87.3247 12.3443L87.1987 12.3858L86.6477 12.5673C83.6086 13.5681 80.5649 14.5542 77.5191 15.5343C74.4723 16.5149 71.4299 17.5084 68.3885 18.5053C66.4279 19.1476 64.4669 19.7883 62.5058 20.429L62.5017 20.4304L61.3989 20.7907C60.6954 21.0206 59.992 21.2507 59.2886 21.4808C58.2171 21.8313 57.145 22.1797 56.0727 22.5277L55.1743 22.8221L54.3766 23.0798L53.7075 23.2975C53.4736 23.3599 53.3378 23.3961 53.1998 23.4171C53.009 23.4462 52.8137 23.4462 52.3486 23.4462L51.942 22.5678C51.4254 21.4521 50.9087 20.3365 50.392 19.2209C50.0447 18.4711 49.6977 17.7212 49.3507 16.9713C48.2746 14.6467 47.1958 12.3235 46.1019 10.0072L45.5771 8.89311C45.2544 8.20824 44.9297 7.52434 44.6041 6.84088L44.1711 5.92201L43.7941 5.12839C43.6709 4.82235 43.6054 4.65975 43.5707 4.49083C43.5312 4.29933 43.5312 4.09972 43.5312 3.67383ZM124.404 15.0612C123.947 14.2456 123.461 13.4978 122.887 12.7598C123.074 14.1391 123.296 15.511 123.53 16.8833L123.688 17.8031C124.315 21.4491 124.986 25.0868 125.659 28.7246C126.371 32.5751 127.069 36.4269 127.719 40.2885C128.422 44.4677 129.162 48.6383 129.934 52.8055C131.124 59.2313 132.264 65.6654 133.392 72.1024L133.574 73.1456C135.507 72.8724 137.41 72.5549 139.309 72.1027C141.529 71.5641 143.752 71.0514 145.992 70.5976L146.694 70.4559L146.996 70.3946C147.827 70.2255 148.658 70.0564 149.489 69.8892L149.529 69.8814L149.532 69.8807L149.532 69.8807L149.533 69.8807C150.196 69.7511 150.858 69.6215 151.52 69.4873L152.145 69.36C152.838 69.2293 153.472 69.0782 154.148 68.8705C154.3 68.4157 154.366 68.2189 154.346 68.0309C154.332 67.8875 154.268 67.7491 154.155 67.5053L153.714 66.7997L153.188 65.9324C152.553 64.8848 151.949 63.8203 151.347 62.7531C151.05 62.2256 150.753 61.6982 150.456 61.1711L149.995 60.3547C149.542 59.5511 149.089 58.7476 148.635 57.9446L148.414 57.5554L148.413 57.5528C147.171 55.3586 145.928 53.1644 144.699 50.9633C142.958 47.8469 141.204 44.7387 139.43 41.641C137.928 39.017 136.435 36.3877 134.949 33.7543C134.236 32.4902 133.522 31.2267 132.808 29.9633L131.938 28.4237L130.201 25.3513L129.767 24.5831L128.899 23.0467L128.813 22.8948C128.102 21.6386 127.391 20.3825 126.685 19.124L126.2 18.2592L125.258 16.584L124.817 15.7949L124.404 15.0612ZM40.325 6.61328H40.8594C42.1676 9.36413 43.4689 12.1182 44.7637 14.8753C45.1806 15.7629 45.599 16.6498 46.0188 17.536C46.501 18.5548 46.9789 19.5755 47.4535 20.5978C47.6329 20.9822 47.8137 21.3659 47.996 21.7489C48.2495 22.2824 48.4978 22.8181 48.7448 23.3547L49.1744 24.2716C49.3062 24.7076 49.3642 24.8993 49.3575 25.0887C49.3523 25.2373 49.3073 25.3845 49.2271 25.6473C48.6965 26.3578 48.0485 26.93 47.3877 27.5134L47.3877 27.5135L47.3876 27.5135L47.3222 27.5713C45.8936 28.8587 44.5182 30.1851 43.1751 31.5614C42.4391 32.3097 41.6851 33.018 40.8897 33.7032C39.7547 34.6846 38.7033 35.7355 37.6531 36.8062C36.4427 38.0402 35.2137 39.2195 33.904 40.3476C33.0597 41.0964 32.2726 41.9003 31.4836 42.7062L31.374 42.8181C30.3812 43.8318 29.3853 44.8224 28.3096 45.7488C27.1811 46.7219 26.1379 47.7666 25.095 48.8299C23.8846 50.0639 22.6556 51.2432 21.3459 52.3713C20.5141 53.109 19.7384 53.9006 18.9607 54.694L18.9606 54.6941L18.8159 54.8418C17.6671 56.003 16.5172 57.1291 15.2672 58.1817C14.4678 58.9024 13.7125 59.6662 12.9562 60.4312L12.9562 60.4312L12.9561 60.4313L12.6705 60.72C11.3341 62.0681 9.99443 63.3853 8.52894 64.5944L8.0457 65.0004C7.67385 65.3121 7.30008 65.6215 6.92578 65.9303C7.30251 64.9309 7.75641 64.0156 8.27636 63.083L8.76894 62.1975L9.29713 61.2544L9.84463 60.2733C11.2921 57.6819 12.7597 55.1023 14.2383 52.5285C15.0865 51.0515 15.9329 49.5735 16.7786 48.0951L17.0529 47.6155C18.5004 45.0846 19.9301 42.5441 21.3514 39.9983C22.4576 38.0186 23.5774 36.0471 24.7051 34.0796C25.6654 32.4036 26.6176 30.7233 27.5665 29.0409C28.9559 26.5778 30.358 24.1221 31.7634 21.6682C33.0548 19.4125 34.3323 17.1493 35.599 14.8796C36.1939 13.816 36.7896 12.7528 37.3859 11.69L37.8241 10.9082C38.2324 10.1822 38.6436 9.45791 39.0559 8.73413L39.4236 8.07809C39.7088 7.58074 40.0147 7.09538 40.325 6.61328ZM149.806 81.4235C151.533 78.4412 153.19 75.4506 154.684 72.3441C154.03 72.3255 153.423 72.3305 152.778 72.4478L152.012 72.6113C151.452 72.7295 150.893 72.848 150.334 72.9673L149.68 73.1071C148.962 73.2606 148.244 73.4142 147.525 73.568L146.768 73.7302C142.366 74.6728 137.967 75.6304 133.575 76.6192C133.303 77.8748 133.02 79.1252 132.704 80.3704C131.97 83.2442 131.271 86.1231 130.621 89.0172L130.503 89.5447C130.344 90.2513 130.186 90.9579 130.028 91.6646C129.18 95.4547 128.33 99.2444 127.377 103.01C126.732 105.551 126.12 108.097 125.545 110.655L125.426 111.187L125.223 112.093L124.95 113.311C124.598 114.887 124.243 116.462 123.884 118.037L123.689 118.886C123.351 120.359 123.007 121.831 122.641 123.298L122.381 124.32C122.211 124.991 122.04 125.663 121.869 126.334C121.358 128.292 120.915 130.176 120.75 132.196H121.017C123.258 128.285 125.482 124.365 127.697 120.439C128.136 119.661 128.575 118.884 129.014 118.106L129.451 117.333C130.292 115.842 131.136 114.352 131.989 112.867C133.197 110.764 134.397 108.658 135.551 106.525C136.803 104.209 138.087 101.918 139.42 99.648C140.532 97.7566 141.63 95.8594 142.701 93.9441C144.109 91.417 145.525 88.8949 146.961 86.3838L147.509 85.4267C148.272 84.091 149.036 82.7556 149.806 81.4235ZM52.3471 123.109C54.1503 123.29 55.8647 123.679 57.6221 124.116L58.5308 124.338C59.1647 124.494 59.7985 124.65 60.432 124.807C61.3856 125.043 62.3396 125.277 63.2937 125.511C65.863 126.143 68.43 126.774 70.9745 127.5C73.7047 128.277 76.4635 128.947 79.2219 129.616C79.7274 129.738 80.2329 129.861 80.7383 129.984C82.7732 130.481 84.8072 130.982 86.8412 131.482L87.4705 131.637C91.7482 132.69 96.0229 133.755 100.294 134.835C101.037 135.022 101.78 135.209 102.523 135.395C103.553 135.654 104.583 135.915 105.613 136.176L106.539 136.407L107.381 136.622L108.114 136.807C108.359 136.886 108.506 136.933 108.646 136.996C108.854 137.09 109.047 137.218 109.527 137.538H43.7969C44.1809 136.578 44.5219 135.833 45.0514 134.971L45.4918 134.251L45.9678 133.48L46.4596 132.678C46.9015 131.957 47.3445 131.237 47.7879 130.518C48.1818 129.878 48.5751 129.238 48.9684 128.598C50.0931 126.767 51.2195 124.938 52.3471 123.109ZM10.1776 80.6723L9.59766 80.0918C9.59766 80.3236 9.59766 80.4549 9.62664 80.5794C9.66445 80.7419 9.75162 80.8929 9.95252 81.2409C11.7243 84.1593 12.6102 85.6187 13.4676 87.0947C14.3251 88.5711 15.154 90.0642 16.8119 93.0507C17.8396 94.8912 18.8722 96.7283 19.9221 98.5562C20.9895 100.413 22.0431 102.275 23.0625 104.158C24.3141 106.475 25.598 108.766 26.9319 111.036C28.2035 113.199 29.4513 115.374 30.6726 117.566C31.9162 119.798 33.1722 122.023 34.4429 124.241C36.423 127.695 38.3775 131.162 40.3166 134.639L40.5922 135.134C40.8385 135.011 40.9713 134.944 41.0823 134.852C41.212 134.743 41.312 134.6 41.5288 134.288L42.0012 133.518C42.272 133.078 42.5427 132.638 42.8112 132.197C43.002 131.884 43.1931 131.57 43.3847 131.257C44.5522 129.347 45.7018 127.428 46.8218 125.49L47.2386 124.763C47.2884 124.677 47.3381 124.59 47.3879 124.504C48.0485 123.357 48.6992 122.228 49.1424 120.972C48.6379 120.488 48.1518 119.994 47.6948 119.465C46.3844 117.927 44.9698 116.511 43.5313 115.094C43.3678 114.933 43.2039 114.772 43.0401 114.612C42.1296 113.719 41.2187 112.825 40.3698 111.873C39.088 110.378 37.7198 108.995 36.317 107.613C36.1535 107.452 35.9897 107.291 35.8258 107.13C34.9153 106.237 34.0045 105.344 33.1556 104.392C31.8738 102.897 30.5056 101.513 29.1028 100.131C28.9367 99.9677 28.7702 99.8044 28.6037 99.6411C27.6973 98.7523 26.7905 97.8632 25.9461 96.9151C24.6229 95.3701 23.2034 93.9442 21.755 92.5163C21.5663 92.3303 21.377 92.1447 21.1876 91.9591C20.2598 91.0495 19.3313 90.1392 18.4669 89.1693C17.1764 87.6598 15.7948 86.2573 14.3858 84.8597C14.1094 84.5857 13.8332 84.3113 13.5573 84.0368C13.1525 83.6336 12.7476 83.2304 12.3427 82.8274C11.62 82.1099 10.8976 81.3923 10.1776 80.6723Z" fill="#00B8D9"/>
</svg>
